<svg xmlns="http://www.w3.org/2000/svg" viewBox="0 0 380.4 455.56"><defs><style>.a,.d{fill:#a50034;}.a,.b,.c{stroke:#000;stroke-miterlimit:10;}.b{fill:#0763a5;}.c{fill:#0984db;stroke-width:2px;}</style></defs><path class="a" d="M119.35,465.14a11.34,11.34,0,0,1-12.26,0q-2.37-1.81-2.37-6.67V428.3c0-1.73-.44-2.79-1.3-3.17a7.29,7.29,0,0,0-2.88-.56H88.9v33.9c0,3.24-.78,5.46-2.32,6.67a9.77,9.77,0,0,1-6.16,1.8,9.82,9.82,0,0,1-6.1-1.8q-2.37-1.81-2.37-6.67V419a4.81,4.81,0,0,1,1.3-3.56,10.62,10.62,0,0,1,3.44-2.2L89,404.79H81.89a5.11,5.11,0,0,1-3.73-1.13A4.27,4.27,0,0,1,77,400.5v-3.16H67v-8.71c0-2.71.83-4.68,2.49-5.93a10.58,10.58,0,0,1,12,0c1.65,1.25,2.48,3.22,2.48,5.93v4.19h2.83a3,3,0,0,1,1.69.33c.3.23.46,1.1.46,2.6v2a2.92,2.92,0,0,0,.45,1.81c.3.37,1.05.56,2.26.56h6.55a3.51,3.51,0,0,1,2.26.57,2.88,2.88,0,0,1,.68,2.26v1.8l-12.2,8.93V419h22.6c1.43,0,2.76.06,4,.17a7.8,7.8,0,0,1,3.22,1,5.48,5.48,0,0,1,2.15,2.49,11.59,11.59,0,0,1,.79,4.74v31.08C121.67,461.71,120.89,463.93,119.35,465.14Z" transform="translate(-66.47 -12)"/><path class="a" d="M130.48,387.17a8.24,8.24,0,0,1,1.07-3.68,4,4,0,0,1,2.55-1.69,21.48,21.48,0,0,1,4.63-.4H177.6c1.88,0,3.43.06,4.63.17a7.37,7.37,0,0,1,2.83.74,2.77,2.77,0,0,1,1.36,1.69,11.31,11.31,0,0,1,.33,3.05v8.48a7.85,7.85,0,0,1-2.54,6.21,9,9,0,0,1-11.92,0,8,8,0,0,1-2.49-6.21v-8.48H152.63a18.73,18.73,0,0,0-2.77.17,3.17,3.17,0,0,0-1.7.74,2.8,2.8,0,0,0-.79,1.69,22.09,22.09,0,0,0-.17,3.05v61.47q0,3.74,1.47,4.69a7.65,7.65,0,0,0,4.18,1h17V452a5,5,0,0,1,.74-2.66,6.47,6.47,0,0,1,1.92-2,10.16,10.16,0,0,1,2.66-1.24,9.88,9.88,0,0,1,2.93-.45,11.56,11.56,0,0,1,2.88.39,9.59,9.59,0,0,1,2.83,1.25,7.24,7.24,0,0,1,2.09,2,4.67,4.67,0,0,1,.79,2.66v7.91a6,6,0,0,1-.62,3,4.3,4.3,0,0,1-1.64,1.64,6.32,6.32,0,0,1-2.32.73,19.24,19.24,0,0,1-2.65.17H137.83a12.59,12.59,0,0,1-2.6-.28,4.47,4.47,0,0,1-2.43-1.47,9.42,9.42,0,0,1-1.81-3.39,20.25,20.25,0,0,1-.74-6.16V393.61C130.25,390.89,130.33,388.75,130.48,387.17Z" transform="translate(-66.47 -12)"/><path class="a" d="M286.25,381.8a8.07,8.07,0,0,1,3.67,1.24,8.46,8.46,0,0,1,2.88,3.39,14.53,14.53,0,0,1,1.19,6.5V457a8,8,0,0,1-2.49,6.21,9,9,0,0,1-11.92,0A7.88,7.88,0,0,1,277,457V426.83H262.69a41.05,41.05,0,0,1-7.18-.51,9,9,0,0,1-4.23-1.75,6.19,6.19,0,0,1-2-3.45,25.41,25.41,0,0,1-.51-5.59V395.08a23.9,23.9,0,0,0-.62-6.73c-.42-1.17-1.6-1.75-3.56-1.75s-3.17.58-3.62,1.75a21.87,21.87,0,0,0-.68,6.73v20.45q0,6.11-4.06,8.7t-12.89,2.6h-15.7a13.12,13.12,0,0,1-9-3.11,10.4,10.4,0,0,1-3.51-8.19v-22.6a15.45,15.45,0,0,1,1-6.22,7.68,7.68,0,0,1,2.77-3.39,9.51,9.51,0,0,1,4-1.41,38,38,0,0,1,4.75-.28h75C283.74,381.63,284.93,381.69,286.25,381.8Zm-74.19,40.06a41.52,41.52,0,0,0,5.32-.29,7.25,7.25,0,0,0,3.5-1.3,5.45,5.45,0,0,0,1.92-2.93,19,19,0,0,0,.56-5.2V386.6c-2.41,0-4.36.08-5.87.23A7.1,7.1,0,0,0,214,387.9a4.07,4.07,0,0,0-1.58,2.43,18.66,18.66,0,0,0-.4,4.29Zm65,0V394.62a22.72,22.72,0,0,0-.34-4.46,3.89,3.89,0,0,0-1.53-2.49,7.2,7.2,0,0,0-3.44-1.07c-1.51-.15-3.5-.22-6-.22V412.7q0,4.86,1.3,7t5.82,2.15Z" transform="translate(-66.47 -12)"/><path class="a" d="M328.23,419h-5.65l-2.83,10a6.77,6.77,0,0,1-3.27,3.1,11.15,11.15,0,0,1-4.86,1.08,7.93,7.93,0,0,1-4.24-1.08,3.42,3.42,0,0,1-1.75-3.1v-15.6h22.6V397.56H308.45v-11.3a7.49,7.49,0,0,1,2.49-6,8.67,8.67,0,0,1,5.87-2.14,8.91,8.91,0,0,1,6.05,2.2,7.73,7.73,0,0,1,2.54,6.16v5.42h14.13a15.11,15.11,0,0,1,1.52.11,5.12,5.12,0,0,1,1.87.63,4.34,4.34,0,0,1,1.58,1.69,6.53,6.53,0,0,1,.68,3.22v15.82h22.6v15.48A3.45,3.45,0,0,1,366,432a8,8,0,0,1-4.24,1.07A11.2,11.2,0,0,1,357,432a6.73,6.73,0,0,1-3.34-3.11L350.83,419h-5.65v39.55a7.92,7.92,0,0,1-2.55,6.16,8.54,8.54,0,0,1-5.93,2.32,8.91,8.91,0,0,1-5.93-2.15,7.69,7.69,0,0,1-2.54-6.22Z" transform="translate(-66.47 -12)"/><path class="b" d="M389.14,445v20.55H375.59v-41.7a26.89,26.89,0,0,1,7.33-18.9,24.89,24.89,0,0,1,36.95,0,26.85,26.85,0,0,1,7.34,18.9v41.7H413.66L413.49,445Zm24.52-21.15a14,14,0,0,0-3.5-9.41,11.48,11.48,0,0,0-17.52,0,14,14,0,0,0-3.5,9.41v7.51l24.52-.08Z" transform="translate(-66.47 -12)"/><path class="b" d="M446.38,465.47H431.7v-68.8h14.59Z" transform="translate(-66.47 -12)"/><path class="c" d="M265.22,13a122.46,122.46,0,0,1,18.66,4.4c24.54,8.51,40.45,30.33,41,56.26a94.85,94.85,0,0,1-1.65,20.47,5,5,0,0,0,.35,3.58c5.37,9.9,3.81,19.56-1.3,29a35,35,0,0,1-5.54,8c-4,4.06-6.16,9-8.37,14.06-5.12,11.75-11.74,22.61-21.8,30.87-21,17.22-48.77,14.22-66.6-7.08a90.58,90.58,0,0,1-15.69-27A33.53,33.53,0,0,0,198,135.26c-6.42-7.51-11.08-15.87-10.66-26.22a10.24,10.24,0,0,1,.36-3c2-5.49.84-11.08.66-16.64-.58-18.71,2.34-36.64,13.09-52.42,9.76-14.31,24.09-21.13,40.85-23.49.88-.13,1.76-.33,2.63-.49Zm-31,65.36a9.63,9.63,0,0,0-3.61,3.2c-5.82,6.56-11.26,13.55-19,18-1.88,1.09-2.51,2.24-2.31,4.28a136.52,136.52,0,0,0,4.79,24.8c4,13.63,9.58,26.49,19.75,36.79,10.8,10.94,24.64,13.51,37.31,6.87,9.67-5.08,15.77-13.55,20.74-22.94,8.52-16.1,12.14-33.53,13.56-51.5.18-2.27.86-4.75-.75-6.87-3.16-4.2-5-9-6.67-14a93.22,93.22,0,0,0-8.94-18.25c-1,4.73-1.76,8.9-2.71,13-.44,1.91-.34,4.75-2.34,5.23-2.17.52-3.05-2.28-4.13-3.84-1.41-2-2.57-2.15-4.26-.47-12,11.94-26.84,18.69-42.84,23.27-.84.25-2,.67-2.56.31-1-.64-.3-1.84,0-2.79C231.48,88.71,232.77,83.85,234.23,78.36Z" transform="translate(-66.47 -12)"/><path class="c" d="M271,327.53q3.92-12.9,7.83-25.78,15.21-50.24,30.49-100.44c1-3.11.29-4.27-2.74-5.28-7.43-2.49-7.41-2.66-4.39-9.94,3.13-7.53,1.8-6.47,8.93-3.93,10.81,3.86,21.66,7.64,32.3,11.92,9.39,3.79,17.32,10.06,24.8,16.74q31.38,28.05,38.07,69.68c.83,5.08.13,9-3.6,13.05-12.7,13.7-26.28,26.46-42.55,35.63-12,6.78-23.66,14.41-37.1,18.64-13.24,4.16-26.51,8-40.28,9.74a199.45,199.45,0,0,1-85-7.61c-26.4-8.16-49.28-22.28-69.95-40.31a180.19,180.19,0,0,1-18.65-19,6.38,6.38,0,0,1-1.71-5.45c4.71-39.51,25.1-68.69,58.85-88.85,8.8-5.26,19.06-7.37,28.56-11.18,3.76-1.51,7.64-2.7,11.39-4.24,2.21-.9,3.55-.67,4.42,1.74,1,2.86,2.25,5.65,3.46,8.43.69,1.6.26,2.56-1.36,3.12-1.8.64-3.55,1.46-5.38,2-2.3.65-3,1.69-2.21,4.17q19.08,62.63,38,125.31a7.45,7.45,0,0,0,.66,1.17c.54-8.75,1.07-17.11,1.57-25.47,1.12-19,2.26-37.94,3.29-56.91.13-2.42.92-3.45,3.41-3.35,3.37.13,6.75.12,10.13,0,2.3-.07,3.13.85,3.25,3.15.56,10.44,1.29,20.87,1.9,31.31q1.52,25.9,3,51.82ZM164.69,215.18c-.37-.17-.48-.27-.55-.24a3.53,3.53,0,0,0-.9.42c-18.68,13.85-31.59,31.73-38,54.18-.51,1.79.14,3,1.19,4.28a137.81,137.81,0,0,0,12.84,13.84c4.41,4.08,8.71,8.33,14,11.75a10.54,10.54,0,0,0,.11-1.3c-1-18.54-1.17-37.05,1.89-55.45A79.6,79.6,0,0,1,164.69,215.18Zm197.05,83.67c.92-.63,1.59-1,2.18-1.49a176.17,176.17,0,0,0,23.2-22.58,6.3,6.3,0,0,0,1.41-6.71,103,103,0,0,0-32.13-48.24c-1.8-1.52-3.48-3.26-5.95-4.46C364.12,242,362.08,270.31,361.74,298.85Zm-57.36,10.47c12.84-.48,25.53-2,37.77-6.11,4.89-1.65,4.83-1.81,4.62-7-.09-2.07-.69-2.26-2.42-1.43a67.47,67.47,0,0,1-15.37,4.9,106.23,106.23,0,0,1-28.13,2c-1.24-.08-2.78-.58-3.59,1.05-1.67,3.36.26,6.48,4.08,6.55C302.35,309.33,303.37,309.32,304.38,309.32Z" transform="translate(-66.47 -12)"/><path class="d" d="M257.19,211.44h1c11.51,0,11.51,0,14.71,11.12.06.22.16.42.2.64.53,2.9-6.89,12.19-9.85,12.24-4,.06-8.08,0-12.12,0a4.24,4.24,0,0,1-4.21-2.16,12,12,0,0,0-.77-1.1c-6.18-8.8-6.15-8.78-1.44-18.62a3.3,3.3,0,0,1,3.38-2.16c3,.05,6.06,0,9.09,0Z" transform="translate(-66.47 -12)"/></svg>